{"title":"Major Crimes S04E05 HDTV x264-LOL","uid":12098809,"size":241358938,"categoryP":"video","categoryS":"tv_shows","magnet":"?xt=urn:btih:f42694eb55c0ec3912ba0c0707ec76afd5956d56&amp;dn=Major+Crimes+S04E05+HDTV+x264-LOL&amp;tr=udp%3A%2F%2Ftracker.openbittorrent.com%3A80&amp;tr=udp%3A%2F%2Fopen.demonii.com%3A1337&amp;tr=udp%3A%2F%2Ftracker.coppersurfer.tk%3A6969&amp;tr=udp%3A%2F%2Fexodus.desync.com%3A6969","seeders":0,"leechers":0,"uploader":"Mulva1989","files":2,"time":1436242163,"description":"Major Crimes S04E05 HDTV x264-LOL\n\nWhile the Major Crimes unit investigates a complicated gangland shooting, Det. Amy Sykes finds she must protect the identify of a witness capable of identifying the killer. Rusty struggles with how to manage newly gained information on the Alice case, and Lt. Flynn works to gain the courage to take his relationship with Captain Raydor to the next level.\n\nScreens @ &lt;a href=&quot;\nhttps://yuq.me/users/50/321/iomlZb9PR8.jpg&quot; rel=&quot;nofollow&quot; target=&quot;_NEW&quot;&gt;\nhttps://yuq.me/users/50/321/iomlZb9PR8.jpg&lt;/a&gt; &lt;a href=&quot;\nhttps://yuq.me/users/50/321/t2dLs7ZbWK.jpg&quot; rel=&quot;nofollow&quot; target=&quot;_NEW&quot;&gt;\nhttps://yuq.me/users/50/321/t2dLs7ZbWK.jpg&lt;/a&gt;\n\nFormat : MPEG-4\nFormat profile : Base Media\nCodec ID : isom\nFile size : 230 MiB\nDuration : 42mn 11s\nOverall bit rate mode : Variable\nOverall bit rate : 763 Kbps\nEncoded date : UTC 2015-07-06 22:32:17\nTagged date : UTC 2015-07-06 22:32:17\n\nVideo\nID : 1\nFormat : AVC\nFormat/Info : Advanced Video Codec\nFormat profile : &lt;a class=&quot;__cf_email__&quot; href=&quot;/cdn-cgi/l/email-protection&quot; data-cfemail=&quot;5c14353b341c106f726d&quot;&gt;[email&amp;#160;protected]&lt;/a&gt;&lt;script data-cfhash='f9e31' type=&quot;text/javascript&quot;&gt;\n/* &lt;![CDATA[ */!function(){try{var t=&quot;currentScript&quot;in document?document.currentScript:function(){for(var t=document.getElementsByTagName(&quot;script&quot;),e=t.length;e--;)if(t[e].getAttribute(&quot;data-cfhash&quot;))return t[e]}();if(t&amp;&amp;t.previousSibling){var e,r,n,i,c=t.previousSibling,a=c.getAttribute(&quot;data-cfemail&quot;);if(a){for(e=&quot;&quot;,r=parseInt(a.substr(0,2),16),n=2;a.length-n;n+=2)i=parseInt(a.substr(n,2),16)^r,e+=String.fromCharCode(i);e=document.createTextNode(e),c.parentNode.replaceChild(e,c)}t.parentNode.removeChild(t);}}catch(u){}}()/* ]]&gt; */&lt;/script&gt;\nFormat settings, CABAC : Yes\nFormat settings, ReFrames : 5 frames\nCodec ID : avc1\nCodec ID/Info : Advanced Video Coding\nDuration : 42mn 11s\nBit rate : 648 Kbps\nMaximum bit rate : 3 364 Kbps\nWidth : 720 pixels\nHeight : 404 pixels\nDisplay aspect ratio : 16:9\nFrame rate mode : Constant\nFrame rate : 23.976 fps\nColor space : YUV\nChroma subsampling : 4:2:0\nBit depth : 8 bits\nScan type : Progressive\nBits/(Pixel*Frame) : 0.093\nStream size : 195 MiB (85%)\nWriting library : x264 core 146 r2538 121396c\nEncoding settings : cabac=1 / ref=5 / deblock=1:1:1 / analyse=0x3:0x133 / me=umh / subme=9 / psy=1 / psy_rd=1.00:0.00 / mixed_ref=1 / me_range=16 / chroma_me=1 / trellis=2 / 8x8dct=1 / cqm=0 / deadzone=21,11 / fast_pskip=1 / chroma_qp_offset=-2 / threads=18 / lookahead_threads=1 / sliced_threads=0 / nr=0 / decimate=1 / interlaced=0 / bluray_compat=0 / constrained_intra=0 / bframes=3 / b_pyramid=2 / b_adapt=2 / b_bias=0 / direct=3 / weightb=1 / open_gop=0 / weightp=2 / keyint=250 / keyint_min=23 / scenecut=40 / intra_refresh=0 / rc_lookahead=60 / rc=crf / mbtree=1 / crf=20.0 / qcomp=0.60 / qpmin=0 / qpmax=69 / qpstep=4 / ip_ratio=1.40 / aq=1:1.00\nEncoded date : UTC 2015-07-06 22:32:17\nTagged date : UTC 2015-07-06 22:32:18\nMatrix coefficients : BT.709\nColor range : Limited\n\nAudio\nID : 2\nFormat : AAC\nFormat/Info : Advanced Audio Codec\nFormat profile : LC\nCodec ID : 40\nDuration : 42mn 10s\nBit rate mode : Variable\nBit rate : 111 Kbps\nMaximum bit rate : 154 Kbps\nChannel(s) : 2 channels\nChannel positions : Front: L R\nSampling rate : 48.0 KHz\nCompression mode : Lossy\nStream size : 33.5 MiB (15%)\nEncoded date : UTC 2015-07-06 22:32:17\nTagged date : UTC 2015-07-06 22:32:18","torrent":{"xt":"urn:btih:f42694eb55c0ec3912ba0c0707ec76afd5956d56","amp;dn":"Major+Crimes+S04E05+HDTV+x264-LOL","amp;tr":["udp%3A%2F%2Ftracker.openbittorrent.com%3A80","udp%3A%2F%2Fopen.demonii.com%3A1337","udp%3A%2F%2Ftracker.coppersurfer.tk%3A6969","udp%3A%2F%2Fexodus.desync.com%3A6969"],"infoHash":"f42694eb55c0ec3912ba0c0707ec76afd5956d56","infoHashBuffer":{"type":"Buffer","data":[244,38,148,235,85,192,236,57,18,186,12,7,7,236,118,175,213,149,109,86]},"announce":[],"urlList":[]}}